<svg xmlns="http://www.w3.org/2000/svg" version="1.1" xmlns:xlink="http://www.w3.org/1999/xlink" xmlns:svgjs="http://svgjs.dev/svgjs" width="2000" height="585" viewBox="0 0 2000 585"><g transform="matrix(1,0,0,1,-1.2121212121212466,-0.5761346425700253)"><svg viewBox="0 0 396 116" data-background-color="#f9f9f9" preserveAspectRatio="xMidYMid meet" height="585" width="2000" xmlns="http://www.w3.org/2000/svg" xmlns:xlink="http://www.w3.org/1999/xlink"><g id="tight-bounds" transform="matrix(1,0,0,1,0.2400000000000091,0.11424208297114546)"><svg viewBox="0 0 395.52 115.77151583405774" height="115.77151583405774" width="395.52"><g><svg viewBox="0 0 395.52 115.77151583405774" height="115.77151583405774" width="395.52"><g><svg viewBox="0 0 395.52 115.77151583405774" height="115.77151583405774" width="395.52"><g id="textblocktransform"><svg viewBox="0 0 395.52 115.77151583405774" height="115.77151583405774" width="395.52" id="textblock"><g><svg viewBox="0 0 395.52 81.26092580849715" height="81.26092580849715" width="395.52"><g transform="matrix(1,0,0,1,0,0)"><svg width="395.52" viewBox="4.65 -32.05 157.69 32.4" height="81.26092580849715" data-palette-color="#030303"><path d="M14.3-28.7L8.7-28.6 8.6-17.45 14-17.35 19.2-17.5 19.5-17.1 19.15-14.05 13.6-14.2 8.55-14.15 8.5-10 8.7 0 4.65 0 4.9-9.65 4.65-32.05 21.7-32.05 22-31.65 21.65-28.45 14.3-28.7ZM35.6-24.9L44.35 0 40.6 0 40-2.7 38.7-6.4 32.75-6.45 27.45-6.4 26.1-2.9 25.4 0 21.7 0 31.3-24.9 35.6-24.9ZM33.05-9.4L37.65-9.45 33.5-21.25 33.2-21.25 28.65-9.45 33.05-9.4ZM57.9-25.15Q60.95-25.15 64-23.95L64-23.95 63.34-20.25 62.75-20.1Q61.34-21.2 60.09-21.73 58.84-22.25 57.5-22.25L57.5-22.25Q55.34-22.25 54.09-21.13 52.84-20 52.84-18.55L52.84-18.55Q52.84-17.1 54.07-16.2 55.3-15.3 57.84-14.2L57.84-14.2Q60.09-13.2 61.42-12.4 62.75-11.6 63.72-10.28 64.7-8.95 64.7-7.05L64.7-7.05Q64.7-5.1 63.65-3.43 62.59-1.75 60.57-0.73 58.55 0.3 55.75 0.3L55.75 0.3Q54 0.3 52.07-0.13 50.15-0.55 48.5-1.4L48.5-1.4 48.95-5.35 49.45-5.55Q50.84-4.15 52.72-3.38 54.59-2.6 56.2-2.6L56.2-2.6Q58.3-2.6 59.65-3.73 61-4.85 61-6.45L61-6.45Q61-7.95 59.77-8.85 58.55-9.75 55.95-10.95L55.95-10.95Q53.8-11.9 52.42-12.7 51.05-13.5 50.09-14.83 49.15-16.15 49.15-18.05L49.15-18.05Q49.15-20.05 50.22-21.65 51.3-23.25 53.27-24.2 55.25-25.15 57.9-25.15L57.9-25.15ZM92.64-24.9L92.49-7.8 92.59 0 88.89 0 89.04-7.5 88.99-10.9 75.44-10.85 75.39-7.8 75.49 0 71.79 0 71.94-7.5 71.79-24.9 75.54-24.9 75.44-14.2 82.19-14.15 88.99-14.2 88.89-24.9 92.64-24.9ZM105.34-24.9L105.19-7.8 105.29 0 101.59 0 101.74-7.5 101.59-24.9 105.34-24.9ZM123.49-25.2Q128.94-25.2 131.86-22 134.79-18.8 134.79-12.95L134.79-12.95Q134.79-6.6 131.66-3.13 128.54 0.35 122.74 0.35L122.74 0.35Q117.34 0.35 114.39-2.93 111.44-6.2 111.44-12.25L111.44-12.25Q111.44-18.45 114.59-21.83 117.74-25.2 123.49-25.2L123.49-25.2ZM123.14-22.05Q119.19-22.05 117.26-19.8 115.34-17.55 115.34-12.7L115.34-12.7Q115.34-7.5 117.24-5.15 119.14-2.8 123.04-2.8L123.04-2.8Q127.04-2.8 128.99-5.1 130.94-7.4 130.94-12.3L130.94-12.3Q130.94-17.35 129.01-19.7 127.09-22.05 123.14-22.05L123.14-22.05ZM162.34-25L162.19-7.45 162.24 0 158.24 0 145.14-19 144.89-19 144.84-8.3 144.94 0 141.54 0 141.69-7.35 141.59-24.9 145.54-24.9 158.64-5.9 158.99-5.9 158.89-24.75 162.34-25Z" opacity="1" transform="matrix(1,0,0,1,0,0)" fill="#030303" class="wordmark-text-0" data-fill-palette-color="primary" id="text-0"></path></svg></g></svg></g><g transform="matrix(1,0,0,1,19.77600000000001,100.44468012966392)"><svg viewBox="0 0 375.74399999999997 15.326835704393808" height="15.326835704393808" width="375.74399999999997"><g transform="matrix(1,0,0,1,0,0)"><svg width="375.74399999999997" viewBox="4.5 -32.05 794.22 32.4" height="15.326835704393808" data-palette-color="#030303"><path d="M16.2-12.95Q21.75-11.85 21.75-7.05L21.75-7.05Q21.75-3.45 18.95-1.65 16.15 0.15 10.75 0.15L10.75 0.15Q7.5 0.15 4.5 0L4.5 0 4.65-7.5 4.5-24.9 12.3-24.95Q16.05-24.95 18.13-23.38 20.2-21.8 20.2-18.9L20.2-18.9Q20.2-16.75 19.15-15.25 18.1-13.75 16.2-12.95L16.2-12.95ZM16.25-18.45Q16.25-20.3 15.05-21.15 13.85-22 11.2-22L11.2-22 8.15-22 8.1-14.3 12.55-14.15Q14.4-14.55 15.33-15.58 16.25-16.6 16.25-18.45L16.25-18.45ZM11.2-2.7Q14.45-2.7 16.18-3.83 17.9-4.95 17.9-7.15L17.9-7.15Q17.9-8.95 16.7-9.95 15.5-10.95 13.05-11.3L13.05-11.3 8.1-11.25 8.05-7.8 8.15-2.85Q9.7-2.7 11.2-2.7L11.2-2.7ZM37.1-3L43.75-3.2 44.05-2.9 43.7 0 28.55 0 28.7-7.5 28.55-24.9 43.8-24.9 44.05-24.6 43.75-21.7 37.45-21.9 32.25-21.85 32.2-14.3 37.15-14.25 41.5-14.4 41.75-14.05 41.45-11.1 36.85-11.25 32.2-11.2 32.15-7.8 32.2-3.05 37.1-3ZM57.65-25.15Q60.7-25.15 63.75-23.95L63.75-23.95 63.09-20.25 62.5-20.1Q61.09-21.2 59.84-21.73 58.59-22.25 57.25-22.25L57.25-22.25Q55.09-22.25 53.84-21.13 52.59-20 52.59-18.55L52.59-18.55Q52.59-17.1 53.82-16.2 55.05-15.3 57.59-14.2L57.59-14.2Q59.84-13.2 61.17-12.4 62.5-11.6 63.47-10.28 64.45-8.95 64.45-7.05L64.45-7.05Q64.45-5.1 63.4-3.43 62.34-1.75 60.32-0.73 58.3 0.3 55.5 0.3L55.5 0.3Q53.75 0.3 51.82-0.13 49.9-0.55 48.25-1.4L48.25-1.4 48.7-5.35 49.2-5.55Q50.59-4.15 52.47-3.38 54.34-2.6 55.95-2.6L55.95-2.6Q58.05-2.6 59.4-3.73 60.75-4.85 60.75-6.45L60.75-6.45Q60.75-7.95 59.52-8.85 58.3-9.75 55.7-10.95L55.7-10.95Q53.55-11.9 52.17-12.7 50.8-13.5 49.84-14.83 48.9-16.15 48.9-18.05L48.9-18.05Q48.9-20.05 49.97-21.65 51.05-23.25 53.02-24.2 55-25.15 57.65-25.15L57.65-25.15ZM86.29-24.9L86.49-24.6 86.24-21.45 81.59-21.8 79.09-21.8 78.94-7.8 79.09 0 75.34 0 75.49-7.5 75.39-21.8 72.89-21.8 68.14-21.45 67.84-21.8 68.14-24.9 86.29-24.9ZM129.59-32.05L132.74 0 129.14 0 128.39-9.75 126.69-25.7 126.34-25.7 117.44-3.7 114.14-3.7 105.69-25.7 105.29-25.7 103.59-10.05 102.74 0 99.34 0 102.69-32.05 107.24-32.05 108.89-27.15 115.84-8.9 116.14-8.9 123.44-27.45 125.09-32.05 129.59-32.05ZM148.84-3L155.49-3.2 155.79-2.9 155.44 0 140.29 0 140.44-7.5 140.29-24.9 155.54-24.9 155.79-24.6 155.49-21.7 149.19-21.9 143.99-21.85 143.94-14.3 148.89-14.25 153.24-14.4 153.49-14.05 153.19-11.1 148.59-11.25 143.94-11.2 143.89-7.8 143.94-3.05 148.84-3ZM182.83-25L182.68-7.45 182.73 0 178.73 0 165.63-19 165.38-19 165.33-8.3 165.43 0 162.03 0 162.18-7.35 162.08-24.9 166.03-24.9 179.13-5.9 179.48-5.9 179.38-24.75 182.83-25ZM199.18-25.15Q202.23-25.15 205.28-23.95L205.28-23.95 204.63-20.25 204.03-20.1Q202.63-21.2 201.38-21.73 200.13-22.25 198.78-22.25L198.78-22.25Q196.63-22.25 195.38-21.13 194.13-20 194.13-18.55L194.13-18.55Q194.13-17.1 195.36-16.2 196.58-15.3 199.13-14.2L199.13-14.2Q201.38-13.2 202.71-12.4 204.03-11.6 205.01-10.28 205.98-8.95 205.98-7.05L205.98-7.05Q205.98-5.1 204.93-3.43 203.88-1.75 201.86-0.73 199.83 0.3 197.03 0.3L197.03 0.3Q195.28 0.3 193.36-0.13 191.43-0.55 189.78-1.4L189.78-1.4 190.23-5.35 190.73-5.55Q192.13-4.15 194.01-3.38 195.88-2.6 197.48-2.6L197.48-2.6Q199.58-2.6 200.93-3.73 202.28-4.85 202.28-6.45L202.28-6.45Q202.28-7.95 201.06-8.85 199.83-9.75 197.23-10.95L197.23-10.95Q195.08-11.9 193.71-12.7 192.33-13.5 191.38-14.83 190.43-16.15 190.43-18.05L190.43-18.05Q190.43-20.05 191.51-21.65 192.58-23.25 194.56-24.2 196.53-25.15 199.18-25.15L199.18-25.15ZM231.98-24.9L240.73 0 236.98 0 236.38-2.7 235.08-6.4 229.13-6.45 223.83-6.4 222.48-2.9 221.78 0 218.08 0 227.68-24.9 231.98-24.9ZM229.43-9.4L234.03-9.45 229.88-21.25 229.58-21.25 225.03-9.45 229.43-9.4ZM267.72-25L267.57-7.45 267.62 0 263.62 0 250.52-19 250.27-19 250.22-8.3 250.32 0 246.92 0 247.07-7.35 246.97-24.9 250.92-24.9 264.02-5.9 264.37-5.9 264.27-24.75 267.72-25ZM286.47-25.1Q292.17-25.1 295.2-22.05 298.22-19 298.22-13.3L298.22-13.3Q298.22-6.75 294.92-3.25 291.62 0.25 285.47 0.25L285.47 0.25Q283.72 0.25 281.3 0.18 278.87 0.1 276.72 0L276.72 0 276.87-7.5 276.72-24.9 286.47-25.1ZM286.07-2.8Q290.07-2.8 292.25-5.23 294.42-7.65 294.42-12.55L294.42-12.55Q294.42-17.35 292.37-19.65 290.32-21.95 286.17-21.95L286.17-21.95Q283.72-21.95 280.42-21.75L280.42-21.75 280.32-7.8 280.37-3.1Q281.82-3 283.42-2.9 285.02-2.8 286.07-2.8L286.07-2.8ZM353.02-32.05L341.52 0 337.37 0 331.12-18.6 330.77-18.6 324.17 0 320.02 0 309.82-32.05 313.82-32.05 314.37-28.95 322.17-4.45 322.52-4.45 329.42-23.95 326.72-32.05 330.82-32.05 331.57-28.6 339.47-4.45 339.77-4.45 348.47-28.75 349.22-32.05 353.02-32.05ZM366.91-25.2Q372.36-25.2 375.29-22 378.21-18.8 378.21-12.95L378.21-12.95Q378.21-6.6 375.09-3.13 371.96 0.35 366.16 0.35L366.16 0.35Q360.76 0.35 357.81-2.93 354.86-6.2 354.86-12.25L354.86-12.25Q354.86-18.45 358.01-21.83 361.16-25.2 366.91-25.2L366.91-25.2ZM366.56-22.05Q362.61-22.05 360.69-19.8 358.76-17.55 358.76-12.7L358.76-12.7Q358.76-7.5 360.66-5.15 362.56-2.8 366.46-2.8L366.46-2.8Q370.46-2.8 372.41-5.1 374.36-7.4 374.36-12.3L374.36-12.3Q374.36-17.35 372.44-19.7 370.51-22.05 366.56-22.05L366.56-22.05ZM408.91-24.9L411.46 0 408.11 0 407.56-7.6 406.21-19.1 405.91-19.1 398.76-2.8 395.81-2.8 389.06-19.1 388.76-19.1 387.46-7.9 386.76 0 383.56 0 386.31-24.9 390.66-24.9 391.91-21.15 397.36-7.75 397.66-7.75 403.36-21.35 404.66-24.9 408.91-24.9ZM427.66-3L434.31-3.2 434.61-2.9 434.26 0 419.11 0 419.26-7.5 419.11-24.9 434.36-24.9 434.61-24.6 434.31-21.7 428.01-21.9 422.81-21.85 422.76-14.3 427.71-14.25 432.06-14.4 432.31-14.05 432.01-11.1 427.41-11.25 422.76-11.2 422.71-7.8 422.76-3.05 427.66-3ZM461.66-25L461.51-7.45 461.56 0 457.56 0 444.46-19 444.21-19 444.16-8.3 444.26 0 440.86 0 441.01-7.35 440.91-24.9 444.86-24.9 457.96-5.9 458.31-5.9 458.21-24.75 461.66-25ZM488.6-25.15Q492.75-25.15 495.8-23.4L495.8-23.4 495.1-19.95 494.65-19.8Q493.4-20.85 491.75-21.45 490.1-22.05 488.2-22.05L488.2-22.05Q484.5-22.05 482.55-19.68 480.6-17.3 480.6-12.6L480.6-12.6Q480.6-7.85 482.55-5.35 484.5-2.85 488.2-2.85L488.2-2.85Q490-2.85 491.83-3.48 493.65-4.1 495.1-5.15L495.1-5.15 495.55-5 495.2-1.55Q491.8 0.3 488.05 0.3L488.05 0.3Q482.55 0.3 479.6-2.98 476.65-6.25 476.65-12.3L476.65-12.3Q476.65-18.45 479.78-21.8 482.9-25.15 488.6-25.15L488.6-25.15ZM515.15-3.15L515.35-2.8 515.1 0 501.85 0 502-7.5 501.85-24.9 505.6-24.9 505.45-7.8 505.55-3.15 515.15-3.15ZM528.85-25.2Q534.3-25.2 537.22-22 540.15-18.8 540.15-12.95L540.15-12.95Q540.15-6.6 537.02-3.13 533.9 0.35 528.1 0.35L528.1 0.35Q522.7 0.35 519.75-2.93 516.8-6.2 516.8-12.25L516.8-12.25Q516.8-18.45 519.95-21.83 523.1-25.2 528.85-25.2L528.85-25.2ZM528.5-22.05Q524.55-22.05 522.62-19.8 520.7-17.55 520.7-12.7L520.7-12.7Q520.7-7.5 522.6-5.15 524.5-2.8 528.4-2.8L528.4-2.8Q532.4-2.8 534.35-5.1 536.3-7.4 536.3-12.3L536.3-12.3Q536.3-17.35 534.37-19.7 532.45-22.05 528.5-22.05L528.5-22.05ZM560.44-24.9L560.64-24.6 560.39-21.45 555.74-21.8 553.24-21.8 553.09-7.8 553.24 0 549.49 0 549.64-7.5 549.54-21.8 547.04-21.8 542.29-21.45 541.99-21.8 542.29-24.9 560.44-24.9ZM587.59-24.9L587.44-7.8 587.54 0 583.84 0 583.99-7.5 583.94-10.9 570.39-10.85 570.34-7.8 570.44 0 566.74 0 566.89-7.5 566.74-24.9 570.49-24.9 570.39-14.2 577.14-14.15 583.94-14.2 583.84-24.9 587.59-24.9ZM600.29-24.9L600.14-7.8 600.24 0 596.54 0 596.69-7.5 596.54-24.9 600.29-24.9ZM630.28-25L630.13-7.45 630.18 0 626.18 0 613.08-19 612.83-19 612.78-8.3 612.88 0 609.48 0 609.63-7.35 609.53-24.9 613.48-24.9 626.58-5.9 626.93-5.9 626.83-24.75 630.28-25ZM649.23-25.15Q653.13-25.15 657.08-23.45L657.08-23.45 655.83-19.85 655.38-19.85Q653.53-21.05 651.98-21.53 650.43-22 648.63-22L648.63-22Q644.38-22 642.26-19.6 640.13-17.2 640.13-12.1L640.13-12.1Q640.13-7.2 642.08-5.03 644.03-2.85 648.28-2.85L648.28-2.85Q649.53-2.85 650.68-3.08 651.83-3.3 653.48-3.9L653.48-3.9 653.48-6.4 653.43-9.95 656.88-10.2 656.88-1.2Q651.83 0.3 648.13 0.3L648.13 0.3Q642.23 0.3 639.21-2.88 636.18-6.05 636.18-11.95L636.18-11.95Q636.18-18.35 639.61-21.75 643.03-25.15 649.23-25.15L649.23-25.15ZM684.68-12.95Q690.23-11.85 690.23-7.05L690.23-7.05Q690.23-3.45 687.43-1.65 684.63 0.15 679.23 0.15L679.23 0.15Q675.98 0.15 672.98 0L672.98 0 673.13-7.5 672.98-24.9 680.78-24.95Q684.53-24.95 686.6-23.38 688.68-21.8 688.68-18.9L688.68-18.9Q688.68-16.75 687.63-15.25 686.58-13.75 684.68-12.95L684.68-12.95ZM684.73-18.45Q684.73-20.3 683.53-21.15 682.33-22 679.68-22L679.68-22 676.63-22 676.58-14.3 681.03-14.15Q682.88-14.55 683.8-15.58 684.73-16.6 684.73-18.45L684.73-18.45ZM679.68-2.7Q682.93-2.7 684.65-3.83 686.38-4.95 686.38-7.15L686.38-7.15Q686.38-8.95 685.18-9.95 683.98-10.95 681.53-11.3L681.53-11.3 676.58-11.25 676.53-7.8 676.63-2.85Q678.18-2.7 679.68-2.7L679.68-2.7ZM708.47-10.05Q711.52-5.4 715.22-0.9L715.22-0.9 715.17-0.4Q713.07 0.25 711.72 0.35L711.72 0.35 711.07-0.05Q707.27-5.8 705.32-9.1L705.32-9.1 700.62-9.05 700.62-7.8 700.72 0 697.02 0 697.17-7.5 697.02-24.9 705.52-24.95Q709.47-24.95 711.6-23.1 713.72-21.25 713.72-17.75L713.72-17.75Q713.72-15.2 712.35-13.2 710.97-11.2 708.47-10.05L708.47-10.05ZM700.72-21.9L700.67-12.15 705.37-12Q709.82-13.25 709.82-17.45L709.82-17.45Q709.82-19.65 708.52-20.75 707.22-21.85 704.57-21.95L704.57-21.95 700.72-21.9ZM732.47-24.9L741.22 0 737.47 0 736.87-2.7 735.57-6.4 729.62-6.45 724.32-6.4 722.97-2.9 722.27 0 718.57 0 728.17-24.9 732.47-24.9ZM729.92-9.4L734.52-9.45 730.37-21.25 730.07-21.25 725.52-9.45 729.92-9.4ZM768.22-25L768.07-7.45 768.12 0 764.12 0 751.02-19 750.77-19 750.72-8.3 750.82 0 747.42 0 747.57-7.35 747.47-24.9 751.42-24.9 764.52-5.9 764.87-5.9 764.77-24.75 768.22-25ZM786.97-25.1Q792.67-25.1 795.69-22.05 798.72-19 798.72-13.3L798.72-13.3Q798.72-6.75 795.42-3.25 792.12 0.25 785.97 0.25L785.97 0.25Q784.22 0.25 781.79 0.18 779.37 0.1 777.22 0L777.22 0 777.37-7.5 777.22-24.9 786.97-25.1ZM786.57-2.8Q790.57-2.8 792.74-5.23 794.92-7.65 794.92-12.55L794.92-12.55Q794.92-17.35 792.87-19.65 790.82-21.95 786.67-21.95L786.67-21.95Q784.22-21.95 780.92-21.75L780.92-21.75 780.82-7.8 780.87-3.1Q782.32-3 783.92-2.9 785.52-2.8 786.57-2.8L786.57-2.8Z" opacity="1" transform="matrix(1,0,0,1,0,0)" fill="#030303" class="slogan-text-1" data-fill-palette-color="secondary" id="text-1"></path></svg></g></svg></g></svg></g></svg></g></svg></g><defs></defs></svg><rect width="395.52" height="115.77151583405774" fill="none" stroke="none" visibility="hidden"></rect></g></svg></g></svg>